<svg width="109" height="31" viewBox="0 0 109 31" fill="none" xmlns="http://www.w3.org/2000/svg">
<path d="M10.5748 0.648124C18.5201 -1.72516 26.8773 2.60861 29.3541 10.554C31.8304 18.4993 27.3936 26.8566 19.4482 29.3333C11.5029 31.8096 3.14564 27.3728 0.668891 19.4274C-1.80739 11.3791 2.83554 3.12487 10.5748 0.648124V0.648124ZM5.51861 23.5553H5.62164L9.23314 19.6342L7.58228 14.578C5.209 14.0623 5.106 13.9586 2.42293 13.3399V13.4429C2.21627 15.1967 2.3199 17.0544 2.83564 18.8082C3.45503 20.5621 4.28046 22.1099 5.51856 23.5548L5.51861 23.5553ZM17.591 27.4765L16.0432 22.3171C13.6699 21.8014 12.9475 21.6977 10.8838 21.182C9.64565 22.5232 8.51053 23.7613 7.27231 25.1031C10.2644 27.3734 13.9795 28.1988 17.5909 27.4764L17.591 27.4765ZM27.0841 19.1184L26.9811 18.9117C25.3302 18.6021 23.5764 18.1893 21.8217 17.7766L18.2103 21.6978L19.8611 26.7539C23.2658 25.4128 25.9489 22.5232 27.0839 19.1183L27.0841 19.1184ZM16.5594 20.1505L20.1709 16.2294L18.6231 11.1732C16.8692 10.7605 15.1147 10.3477 13.4637 9.93503L9.85222 13.8562L11.4001 18.9124C13.1539 19.3251 14.8048 19.7378 16.5594 20.1505ZM27.4968 16.7458L27.5998 16.6428C27.9095 14.8889 27.7028 13.0313 27.1871 11.2774C26.6713 9.52356 25.7423 7.97571 24.6078 6.63386L24.4011 6.53083L20.7896 10.452L22.3375 15.6113C24.0913 15.921 25.8458 16.3337 27.4968 16.7464L27.4968 16.7458ZM8.2009 12.3089C9.33602 11.0707 10.5742 9.72959 11.7092 8.38774L10.1614 3.33155H10.0584C6.75665 4.67274 4.07358 7.56231 2.93852 10.9672V11.1738C6.34323 11.8963 5.10517 11.5866 8.20087 12.309L8.2009 12.3089ZM12.5348 2.50659L12.4318 2.71325L13.9796 7.76944C15.7335 8.18216 17.3844 8.49185 19.139 8.90457L22.7505 4.98344L22.6475 4.88041C19.7584 2.71376 16.044 1.7847 12.5356 2.50713L12.5348 2.50659Z" fill="white"/>
<path d="M39.5573 23V5.54545H46.4437C47.7676 5.54545 48.8954 5.7983 49.8272 6.30398C50.759 6.80398 51.4693 7.5 51.9579 8.39204C52.4522 9.27841 52.6994 10.3011 52.6994 11.4602C52.6994 12.6193 52.4494 13.642 51.9494 14.5284C51.4494 15.4148 50.7249 16.1051 49.7761 16.5994C48.8329 17.0937 47.6909 17.3409 46.3499 17.3409H41.9607V14.3835H45.7534C46.4636 14.3835 47.0488 14.2614 47.509 14.017C47.9749 13.767 48.3215 13.4233 48.5488 12.9858C48.7818 12.5426 48.8982 12.0341 48.8982 11.4602C48.8982 10.8807 48.7818 10.375 48.5488 9.94318C48.3215 9.50568 47.9749 9.16761 47.509 8.92898C47.0431 8.68466 46.4522 8.5625 45.7363 8.5625H43.2477V23H39.5573ZM55.0282 23V9.90909H58.5481V12.1932H58.6845C58.9231 11.3807 59.3237 10.767 59.8862 10.3523C60.4487 9.93182 61.0964 9.72159 61.8293 9.72159C62.0112 9.72159 62.2072 9.73295 62.4174 9.75568C62.6276 9.77841 62.8123 9.80966 62.9714 9.84943V13.071C62.8009 13.0199 62.5651 12.9744 62.264 12.9347C61.9629 12.8949 61.6873 12.875 61.4373 12.875C60.9032 12.875 60.4259 12.9915 60.0055 13.2244C59.5907 13.4517 59.2612 13.7699 59.0168 14.179C58.7782 14.5881 58.6589 15.0597 58.6589 15.5938V23H55.0282ZM70.1539 23.2557C68.8301 23.2557 67.6852 22.9744 66.7193 22.4119C65.759 21.8437 65.0176 21.054 64.4948 20.0426C63.9721 19.0256 63.7107 17.8466 63.7107 16.5057C63.7107 15.1534 63.9721 13.9716 64.4948 12.9602C65.0176 11.9432 65.759 11.1534 66.7193 10.5909C67.6852 10.0227 68.8301 9.73864 70.1539 9.73864C71.4778 9.73864 72.6198 10.0227 73.5801 10.5909C74.546 11.1534 75.2903 11.9432 75.813 12.9602C76.3357 13.9716 76.5971 15.1534 76.5971 16.5057C76.5971 17.8466 76.3357 19.0256 75.813 20.0426C75.2903 21.054 74.546 21.8437 73.5801 22.4119C72.6198 22.9744 71.4778 23.2557 70.1539 23.2557ZM70.171 20.4432C70.7732 20.4432 71.2761 20.2727 71.6795 19.9318C72.0829 19.5852 72.3869 19.1136 72.5914 18.517C72.8016 17.9205 72.9068 17.2415 72.9068 16.4801C72.9068 15.7188 72.8016 15.0398 72.5914 14.4432C72.3869 13.8466 72.0829 13.375 71.6795 13.0284C71.2761 12.6818 70.7732 12.5085 70.171 12.5085C69.563 12.5085 69.0516 12.6818 68.6369 13.0284C68.2278 13.375 67.9181 13.8466 67.7079 14.4432C67.5034 15.0398 67.4011 15.7188 67.4011 16.4801C67.4011 17.2415 67.5034 17.9205 67.7079 18.517C67.9181 19.1136 68.2278 19.5852 68.6369 19.9318C69.0516 20.2727 69.563 20.4432 70.171 20.4432ZM83.7818 23.2131C82.7874 23.2131 81.8869 22.9574 81.0801 22.446C80.2789 21.929 79.6426 21.1705 79.171 20.1705C78.7051 19.1648 78.4721 17.9318 78.4721 16.4716C78.4721 14.9716 78.7136 13.7244 79.1965 12.7301C79.6795 11.7301 80.3215 10.983 81.1227 10.4886C81.9295 9.98864 82.813 9.73864 83.7732 9.73864C84.5062 9.73864 85.117 9.86364 85.6056 10.1136C86.0999 10.358 86.4977 10.6648 86.7988 11.0341C87.1056 11.3977 87.3386 11.7557 87.4977 12.108H87.6085V5.54545H91.2306V23H87.6511V20.9034H87.4977C87.3272 21.267 87.0857 21.6278 86.7732 21.9858C86.4664 22.3381 86.0659 22.6307 85.5715 22.8636C85.0829 23.0966 84.4863 23.2131 83.7818 23.2131ZM84.9323 20.3239C85.5176 20.3239 86.0119 20.1648 86.4153 19.8466C86.8244 19.5227 87.1369 19.071 87.3528 18.4915C87.5744 17.9119 87.6852 17.233 87.6852 16.4545C87.6852 15.6761 87.5772 15 87.3613 14.4261C87.1454 13.8523 86.8329 13.4091 86.4238 13.0966C86.0147 12.7841 85.5176 12.6278 84.9323 12.6278C84.3357 12.6278 83.8329 12.7898 83.4238 13.1136C83.0147 13.4375 82.7051 13.8864 82.4948 14.4602C82.2846 15.0341 82.1795 15.6989 82.1795 16.4545C82.1795 17.2159 82.2846 17.8892 82.4948 18.4744C82.7107 19.054 83.0204 19.5085 83.4238 19.8381C83.8329 20.1619 84.3357 20.3239 84.9323 20.3239ZM100.182 23.2557C98.835 23.2557 97.6759 22.983 96.7043 22.4375C95.7384 21.8864 94.9941 21.108 94.4714 20.1023C93.9487 19.0909 93.6873 17.8949 93.6873 16.5142C93.6873 15.1676 93.9487 13.9858 94.4714 12.9688C94.9941 11.9517 95.7299 11.1591 96.6788 10.5909C97.6333 10.0227 98.7526 9.73864 100.037 9.73864C100.9 9.73864 101.704 9.87784 102.449 10.1562C103.199 10.429 103.852 10.8409 104.409 11.392C104.971 11.9432 105.409 12.6364 105.721 13.4716C106.034 14.3011 106.19 15.2727 106.19 16.3864V17.3835H95.1362V15.1335H102.773C102.773 14.6108 102.659 14.1477 102.432 13.7443C102.204 13.3409 101.889 13.0256 101.486 12.7983C101.088 12.5653 100.625 12.4489 100.096 12.4489C99.5453 12.4489 99.0566 12.5767 98.6305 12.8324C98.21 13.0824 97.8805 13.4205 97.6418 13.8466C97.4032 14.267 97.2811 14.7358 97.2754 15.2528V17.392C97.2754 18.0398 97.3947 18.5994 97.6333 19.071C97.8776 19.5426 98.2214 19.9062 98.6646 20.1619C99.1078 20.4176 99.6333 20.5455 100.241 20.5455C100.645 20.5455 101.014 20.4886 101.349 20.375C101.684 20.2614 101.971 20.0909 102.21 19.8636C102.449 19.6364 102.63 19.358 102.755 19.0284L106.113 19.25C105.943 20.0568 105.594 20.7614 105.065 21.3636C104.542 21.9602 103.866 22.4261 103.037 22.7614C102.213 23.0909 101.261 23.2557 100.182 23.2557Z" fill="white"/>
</svg>
